# xmcd
#
# Track frame offsets:
#	150
#	12195
#	23573
#	35034
#	48276
#	60772
#	73483
#	85304
#	99041
#	110907
#	122624
#	133604
#	143923
#	156656
#	169340
#	182190
#
# Disc length: 2565 seconds
#
# Revision: 0
# Processed by: cddbd v1.5.2PL0 Copyright (c) Steve Scherf et al.
# Submitted via: audiograbber 1.83.01
#
DISCID=de0a0310
DTITLE=Ray Charles - Ray Charles CD 2
DYEAR=2006
DGENRE=Blues
TTITLE0=I Love You, I Love You
TTITLE1=Confession Blues
TTITLE2=Let's Have a Ball
TTITLE3=Alone in this City
TTITLE4=Rockin' Chair Blues
TTITLE5=Can Anyone Ask for More?
TTITLE6=If I Give You My Love
TTITLE7=This Love of Mine
TTITLE8=Can't You See Darling?
TTITLE9=How Long Blues
TTITLE10=A Sentimental Blues
TTITLE11=Ain't That Fine
TTITLE12=Blues Before Sunrise
TTITLE13=You'll Never Miss the Water
TTITLE14=Don't Put All Your Dreams In One Basket
TTITLE15=Sittin' On Top Of the World
EXTD=
EXTT0=
EXTT1=
EXTT2=
EXTT3=
EXTT4=
EXTT5=
EXTT6=
EXTT7=
EXTT8=
EXTT9=
EXTT10=
EXTT11=
EXTT12=
EXTT13=
EXTT14=
EXTT15=
PLAYORDER=
